# Blender v2.79 (sub 0) OBJ File: ''
# www.blender.org
mtllib coin8.mtl
o Cube_Cube.037
v 1.781751 24.357016 4.402329
v 1.781755 27.102219 4.402330
v 0.161840 27.102221 4.415363
v 0.161838 24.357018 4.415362
v 0.157331 27.102221 3.855011
v 0.157331 24.357018 3.855010
v 1.777246 27.102219 3.841978
v 1.777242 24.357016 3.841977
vn 0.0080 -0.0000 1.0000
vn -1.0000 0.0000 0.0080
vn -0.0080 0.0000 -1.0000
vn 1.0000 -0.0000 -0.0080
vn -0.0000 -1.0000 0.0000
vn 0.0000 1.0000 -0.0000
usemtl None.097
s 1
f 1//1 2//1 3//1 4//1
f 4//2 3//2 5//2 6//2
f 6//3 5//3 7//3 8//3
f 8//4 7//4 2//4 1//4
f 4//5 6//5 8//5 1//5
f 5//6 3//6 2//6 7//6
