# Blender v2.79 (sub 0) OBJ File: ''
# www.blender.org
mtllib coin10.mtl
o Cube_Cube.037
v 7.133697 0.604844 -0.199117
v 7.133696 3.350047 -0.199114
v 7.128760 3.350049 -1.819073
v 7.128760 0.604845 -1.819075
v 7.689128 3.350049 -1.820781
v 7.689129 0.604845 -1.820782
v 7.694062 3.350047 -0.200821
v 7.694062 0.604844 -0.200825
vn -1.0000 -0.0000 0.0030
vn -0.0030 0.0000 -1.0000
vn 1.0000 0.0000 -0.0030
vn 0.0030 -0.0000 1.0000
vn -0.0000 -1.0000 -0.0000
vn 0.0000 1.0000 0.0000
usemtl None.097
s 1
f 1//1 2//1 3//1 4//1
f 4//2 3//2 5//2 6//2
f 6//3 5//3 7//3 8//3
f 8//4 7//4 2//4 1//4
f 4//5 6//5 8//5 1//5
f 5//6 3//6 2//6 7//6
