# Blender v2.79 (sub 0) OBJ File: ''
# www.blender.org
mtllib coin7.mtl
o Cube_Cube.037
v -2.898098 8.892946 13.794456
v -2.898094 11.638149 13.794456
v -4.518009 11.638151 13.807489
v -4.518011 8.892947 13.807488
v -4.522518 11.638151 13.247137
v -4.522518 8.892947 13.247136
v -2.902603 11.638149 13.234104
v -2.902607 8.892946 13.234103
vn 0.0080 -0.0000 1.0000
vn -1.0000 0.0000 0.0080
vn -0.0080 0.0000 -1.0000
vn 1.0000 -0.0000 -0.0080
vn -0.0000 -1.0000 0.0000
vn 0.0000 1.0000 -0.0000
usemtl None.097
s 1
f 1//1 2//1 3//1 4//1
f 4//2 3//2 5//2 6//2
f 6//3 5//3 7//3 8//3
f 8//4 7//4 2//4 1//4
f 4//5 6//5 8//5 1//5
f 5//6 3//6 2//6 7//6
