# Blender v2.79 (sub 0) OBJ File: ''
# www.blender.org
mtllib decoration6.mtl
o Cube.046_Cube.047
v 1.065247 1.000604 1.363571
v 1.065247 2.191604 1.363571
v 1.059015 2.191603 2.554554
v 1.059015 1.000604 2.554554
v -0.131968 2.191603 2.548322
v -0.131968 1.000604 2.548322
v -0.125736 2.191604 1.357339
v -0.125736 1.000604 1.357339
vn 1.0000 0.0000 0.0052
vn -0.0052 0.0000 1.0000
vn -1.0000 -0.0000 -0.0052
vn 0.0052 0.0000 -1.0000
vn 0.0000 -1.0000 0.0000
vn -0.0000 1.0000 0.0000
usemtl None
s 1
f 1//1 2//1 3//1 4//1
f 4//2 3//2 5//2 6//2
f 6//3 5//3 7//3 8//3
f 8//4 7//4 2//4 1//4
f 4//5 6//5 8//5 1//5
f 5//6 3//6 2//6 7//6
o Cube.042_Cube.043
v -0.121258 -0.121250 1.357362
v -0.121258 1.069750 1.357362
v -0.127490 1.069750 2.548346
v -0.127490 -0.121250 2.548346
v -1.318474 1.069750 2.542114
v -1.318474 -0.121250 2.542114
v -1.312242 1.069750 1.351130
v -1.312242 -0.121250 1.351130
vn 1.0000 -0.0000 0.0052
vn -0.0052 -0.0000 1.0000
vn -1.0000 0.0000 -0.0052
vn 0.0052 0.0000 -1.0000
vn 0.0000 -1.0000 -0.0000
vn -0.0000 1.0000 0.0000
usemtl None
s 1
f 9//7 10//7 11//7 12//7
f 12//8 11//8 13//8 14//8
f 14//9 13//9 15//9 16//9
f 16//10 15//10 10//10 9//10
f 12//11 14//11 16//11 9//11
f 13//12 11//12 10//12 15//12
o Cube.041_Cube.042
v 1.065247 -0.121250 1.363571
v 1.065247 1.069750 1.363571
v 1.059015 1.069750 2.554554
v 1.059015 -0.121250 2.554554
v -0.131968 1.069750 2.548322
v -0.131968 -0.121250 2.548322
v -0.125736 1.069750 1.357339
v -0.125736 -0.121250 1.357339
vn 1.0000 0.0000 0.0052
vn -0.0052 -0.0000 1.0000
vn -1.0000 -0.0000 -0.0052
vn 0.0052 0.0000 -1.0000
vn 0.0000 -1.0000 -0.0000
vn -0.0000 1.0000 0.0000
usemtl None
s 1
f 17//13 18//13 19//13 20//13
f 20//14 19//14 21//14 22//14
f 22//15 21//15 23//15 24//15
f 24//16 23//16 18//16 17//16
f 20//17 22//17 24//17 17//17
f 21//18 19//18 18//18 23//18
o Cube.043_Cube.044
v -1.287483 -0.121250 1.351261
v -1.287483 1.069750 1.351261
v -1.293715 1.069750 2.542244
v -1.293715 -0.121250 2.542244
v -2.484699 1.069750 2.536012
v -2.484699 -0.121250 2.536012
v -2.478467 1.069750 1.345029
v -2.478467 -0.121250 1.345029
vn 1.0000 -0.0000 0.0052
vn -0.0052 -0.0000 1.0000
vn -1.0000 -0.0000 -0.0052
vn 0.0052 0.0000 -1.0000
vn -0.0000 -1.0000 -0.0000
vn -0.0000 1.0000 0.0000
usemtl None
s 1
f 25//19 26//19 27//19 28//19
f 28//20 27//20 29//20 30//20
f 30//21 29//21 31//21 32//21
f 32//22 31//22 26//22 25//22
f 28//23 30//23 32//23 25//23
f 29//24 27//24 26//24 31//24
o Cube.040_Cube.041
v 2.286043 -0.121250 1.369958
v 2.286043 1.069750 1.369958
v 2.279811 1.069750 2.560942
v 2.279811 -0.121250 2.560942
v 1.088827 1.069750 2.554710
v 1.088827 -0.121250 2.554710
v 1.095059 1.069750 1.363726
v 1.095059 -0.121250 1.363726
vn 1.0000 0.0000 0.0052
vn -0.0052 -0.0000 1.0000
vn -1.0000 0.0000 -0.0052
vn 0.0052 0.0000 -1.0000
vn 0.0000 -1.0000 -0.0000
vn -0.0000 1.0000 0.0000
usemtl None
s 1
f 33//25 34//25 35//25 36//25
f 36//26 35//26 37//26 38//26
f 38//27 37//27 39//27 40//27
f 40//28 39//28 34//28 33//28
f 36//29 38//29 40//29 33//29
f 37//30 35//30 34//30 39//30
o Cube.045_Cube.046
v -0.121258 1.000604 1.357362
v -0.121258 2.191604 1.357362
v -0.127490 2.191603 2.548346
v -0.127490 1.000604 2.548346
v -1.318474 2.191603 2.542114
v -1.318474 1.000604 2.542114
v -1.312242 2.191604 1.351130
v -1.312242 1.000604 1.351130
vn 1.0000 0.0000 0.0052
vn -0.0052 0.0000 1.0000
vn -1.0000 -0.0000 -0.0052
vn 0.0052 0.0000 -1.0000
vn 0.0000 -1.0000 -0.0000
vn -0.0000 1.0000 0.0000
usemtl None
s 1
f 41//31 42//31 43//31 44//31
f 44//32 43//32 45//32 46//32
f 46//33 45//33 47//33 48//33
f 48//34 47//34 42//34 41//34
f 44//35 46//35 48//35 41//35
f 45//36 43//36 42//36 47//36
o Cube.047_Cube.048
v 2.286043 1.000604 1.369958
v 2.286043 2.191604 1.369958
v 2.279811 2.191603 2.560942
v 2.279811 1.000604 2.560942
v 1.088827 2.191603 2.554710
v 1.088827 1.000604 2.554710
v 1.095059 2.191604 1.363726
v 1.095059 1.000604 1.363726
vn 1.0000 0.0000 0.0052
vn -0.0052 0.0000 1.0000
vn -1.0000 0.0000 -0.0052
vn 0.0052 0.0000 -1.0000
vn 0.0000 -1.0000 -0.0000
vn -0.0000 1.0000 0.0000
usemtl None
s 1
f 49//37 50//37 51//37 52//37
f 52//38 51//38 53//38 54//38
f 54//39 53//39 55//39 56//39
f 56//40 55//40 50//40 49//40
f 52//41 54//41 56//41 49//41
f 53//42 51//42 50//42 55//42
o Cube.044_Cube.045
v -1.287483 1.000604 1.351261
v -1.287483 2.191604 1.351261
v -1.293715 2.191603 2.542244
v -1.293715 1.000604 2.542244
v -2.484699 2.191603 2.536012
v -2.484699 1.000604 2.536012
v -2.478467 2.191604 1.345029
v -2.478467 1.000604 1.345029
vn 1.0000 0.0000 0.0052
vn -0.0052 0.0000 1.0000
vn -1.0000 0.0000 -0.0052
vn 0.0052 0.0000 -1.0000
vn 0.0000 -1.0000 -0.0000
vn -0.0000 1.0000 0.0000
usemtl None
s 1
f 57//43 58//43 59//43 60//43
f 60//44 59//44 61//44 62//44
f 62//45 61//45 63//45 64//45
f 64//46 63//46 58//46 57//46
f 60//47 62//47 64//47 57//47
f 61//48 59//48 58//48 63//48
