# Blender v2.79 (sub 0) OBJ File: ''
# www.blender.org
mtllib two.mtl
o Cube.005_Cube.008
v -3.305846 -1.495726 -1.445935
v -3.305846 -0.304726 -1.445935
v -2.114877 -0.304726 -1.437352
v -2.114877 -1.495726 -1.437352
v -2.123459 -0.304726 -0.246383
v -2.123459 -1.495726 -0.246383
v -3.314429 -0.304726 -0.254966
v -3.314429 -1.495726 -0.254966
vn 0.0072 0.0000 -1.0000
vn 1.0000 -0.0000 0.0072
vn -0.0072 -0.0000 1.0000
vn -1.0000 -0.0000 -0.0072
vn 0.0000 -1.0000 -0.0000
vn -0.0000 1.0000 0.0000
usemtl None.010
s 1
f 1//1 2//1 3//1 4//1
f 4//2 3//2 5//2 6//2
f 6//3 5//3 7//3 8//3
f 8//4 7//4 2//4 1//4
f 4//5 6//5 8//5 1//5
f 5//6 3//6 2//6 7//6
o Cube.006_Cube.008
v -2.136201 -1.495726 -1.437505
v -2.136201 -0.304726 -1.437505
v -0.945232 -0.304726 -1.428923
v -0.945232 -1.495726 -1.428923
v -0.953815 -0.304726 -0.237954
v -0.953815 -1.495726 -0.237954
v -2.144784 -0.304726 -0.246536
v -2.144784 -1.495726 -0.246536
vn 0.0072 0.0000 -1.0000
vn 1.0000 0.0000 0.0072
vn -0.0072 -0.0000 1.0000
vn -1.0000 -0.0000 -0.0072
vn 0.0000 -1.0000 -0.0000
vn -0.0000 1.0000 0.0000
usemtl None.010
s 1
f 9//7 10//7 11//7 12//7
f 12//8 11//8 13//8 14//8
f 14//9 13//9 15//9 16//9
f 16//10 15//10 10//10 9//10
f 12//11 14//11 16//11 9//11
f 13//12 11//12 10//12 15//12
o Cube.004_Cube.007
v -4.491321 -1.495726 -1.454478
v -4.491321 -0.304726 -1.454478
v -3.300352 -0.304726 -1.445895
v -3.300352 -1.495726 -1.445895
v -3.308935 -0.304726 -0.254926
v -3.308934 -1.495726 -0.254926
v -4.499904 -0.304726 -0.263509
v -4.499904 -1.495726 -0.263509
vn 0.0072 0.0000 -1.0000
vn 1.0000 0.0000 0.0072
vn -0.0072 -0.0000 1.0000
vn -1.0000 -0.0000 -0.0072
vn 0.0000 -1.0000 -0.0000
vn -0.0000 1.0000 0.0000
usemtl None.010
s 1
f 17//13 18//13 19//13 20//13
f 20//14 19//14 21//14 22//14
f 22//15 21//15 23//15 24//15
f 24//16 23//16 18//16 17//16
f 20//17 22//17 24//17 17//17
f 21//18 19//18 18//18 23//18
o Cube.004_Cube.000_Cube.004_Cube.009
v 1.392954 -1.495726 -1.454478
v 1.392954 -0.304726 -1.454478
v 2.583922 -0.304726 -1.445895
v 2.583922 -1.495726 -1.445895
v 2.575339 -0.304726 -0.254926
v 2.575340 -1.495726 -0.254926
v 1.384371 -0.304726 -0.263509
v 1.384371 -1.495726 -0.263509
vn 0.0072 0.0000 -1.0000
vn 1.0000 0.0000 0.0072
vn -0.0072 -0.0000 1.0000
vn -1.0000 0.0000 -0.0072
vn 0.0000 -1.0000 -0.0000
vn -0.0000 1.0000 0.0000
usemtl None.014
s 1
f 25//19 26//19 27//19 28//19
f 28//20 27//20 29//20 30//20
f 30//21 29//21 31//21 32//21
f 32//22 31//22 26//22 25//22
f 28//23 30//23 32//23 25//23
f 29//24 27//24 26//24 31//24
o Cube.005_Cube.000_Cube.005_Cube.009
v 2.578428 -1.495726 -1.445935
v 2.578428 -0.304726 -1.445935
v 3.769398 -0.304726 -1.437352
v 3.769398 -1.495726 -1.437352
v 3.760816 -0.304726 -0.246383
v 3.760816 -1.495726 -0.246383
v 2.569845 -0.304726 -0.254966
v 2.569845 -1.495726 -0.254966
vn 0.0072 0.0000 -1.0000
vn 1.0000 0.0000 0.0072
vn -0.0072 -0.0000 1.0000
vn -1.0000 0.0000 -0.0072
vn 0.0000 -1.0000 -0.0000
vn -0.0000 1.0000 0.0000
usemtl None.014
s 1
f 33//25 34//25 35//25 36//25
f 36//26 35//26 37//26 38//26
f 38//27 37//27 39//27 40//27
f 40//28 39//28 34//28 33//28
f 36//29 38//29 40//29 33//29
f 37//30 35//30 34//30 39//30
o Cube.007_Cube.001_Cube.007_Cube.019
v -1.159338 -1.500440 -1.429022
v -1.159338 -0.309440 -1.429022
v 0.031631 -0.309440 -1.420439
v 0.031631 -1.500440 -1.420439
v 0.023048 -0.309440 -0.229470
v 0.023048 -1.500440 -0.229470
v -1.167921 -0.309440 -0.238053
v -1.167921 -1.500440 -0.238053
vn 0.0072 0.0000 -1.0000
vn 1.0000 -0.0000 0.0072
vn -0.0072 -0.0000 1.0000
vn -1.0000 0.0000 -0.0072
vn 0.0000 -1.0000 -0.0000
vn -0.0000 1.0000 0.0000
usemtl None.019
s 1
f 41//31 42//31 43//31 44//31
f 44//32 43//32 45//32 46//32
f 46//33 45//33 47//33 48//33
f 48//34 47//34 42//34 41//34
f 44//35 46//35 48//35 41//35
f 45//36 43//36 42//36 47//36
o Cube.007_Cube.000_Cube.007_Cube.020
v -0.020666 -1.500440 -1.429022
v -0.020666 -0.309440 -1.429022
v 1.170303 -0.309440 -1.420439
v 1.170303 -1.500440 -1.420439
v 1.161720 -0.309440 -0.229470
v 1.161720 -1.500440 -0.229470
v -0.029249 -0.309440 -0.238053
v -0.029249 -1.500440 -0.238053
vn 0.0072 0.0000 -1.0000
vn 1.0000 -0.0000 0.0072
vn -0.0072 -0.0000 1.0000
vn -1.0000 0.0000 -0.0072
vn 0.0000 -1.0000 -0.0000
vn -0.0000 1.0000 0.0000
usemtl None.020
s 1
f 49//37 50//37 51//37 52//37
f 52//38 51//38 53//38 54//38
f 54//39 53//39 55//39 56//39
f 56//40 55//40 50//40 49//40
f 52//41 54//41 56//41 49//41
f 53//42 51//42 50//42 55//42
