# Blender v2.79 (sub 0) OBJ File: ''
# www.blender.org
mtllib three.mtl
o Cube.005_Cube.008
v -12.283949 -1.495726 -1.445935
v -12.283949 -0.304726 -1.445935
v -11.092979 -0.304726 -1.437352
v -11.092979 -1.495726 -1.437352
v -11.101562 -0.304726 -0.246383
v -11.101562 -1.495726 -0.246383
v -12.292532 -0.304726 -0.254966
v -12.292532 -1.495726 -0.254966
vn 0.0072 0.0000 -1.0000
vn 1.0000 -0.0000 0.0072
vn -0.0072 -0.0000 1.0000
vn -1.0000 -0.0000 -0.0072
vn 0.0000 -1.0000 -0.0000
vn -0.0000 1.0000 0.0000
usemtl None.010
s 1
f 1//1 2//1 3//1 4//1
f 4//2 3//2 5//2 6//2
f 6//3 5//3 7//3 8//3
f 8//4 7//4 2//4 1//4
f 4//5 6//5 8//5 1//5
f 5//6 3//6 2//6 7//6
o Cube.006_Cube.008
v -11.114304 -1.495726 -1.437505
v -11.114304 -0.304726 -1.437505
v -9.923335 -0.304726 -1.428923
v -9.923335 -1.495726 -1.428923
v -9.931918 -0.304726 -0.237954
v -9.931917 -1.495726 -0.237954
v -11.122887 -0.304726 -0.246536
v -11.122887 -1.495726 -0.246536
vn 0.0072 0.0000 -1.0000
vn 1.0000 0.0000 0.0072
vn -0.0072 -0.0000 1.0000
vn -1.0000 -0.0000 -0.0072
vn 0.0000 -1.0000 -0.0000
vn -0.0000 1.0000 0.0000
usemtl None.010
s 1
f 9//7 10//7 11//7 12//7
f 12//8 11//8 13//8 14//8
f 14//9 13//9 15//9 16//9
f 16//10 15//10 10//10 9//10
f 12//11 14//11 16//11 9//11
f 13//12 11//12 10//12 15//12
o Cube.004_Cube.007
v -13.469423 -1.495726 -1.454478
v -13.469423 -0.304726 -1.454478
v -12.278455 -0.304726 -1.445895
v -12.278455 -1.495726 -1.445895
v -12.287038 -0.304726 -0.254926
v -12.287037 -1.495726 -0.254926
v -13.478006 -0.304726 -0.263509
v -13.478006 -1.495726 -0.263509
vn 0.0072 0.0000 -1.0000
vn 1.0000 0.0000 0.0072
vn -0.0072 -0.0000 1.0000
vn -1.0000 -0.0000 -0.0072
vn 0.0000 -1.0000 -0.0000
vn -0.0000 1.0000 0.0000
usemtl None.010
s 1
f 17//13 18//13 19//13 20//13
f 20//14 19//14 21//14 22//14
f 22//15 21//15 23//15 24//15
f 24//16 23//16 18//16 17//16
f 20//17 22//17 24//17 17//17
f 21//18 19//18 18//18 23//18
o Cube.007_Cube.000_Cube.007_Cube.012
v -8.761566 -1.500440 -1.429022
v -8.761566 -0.309440 -1.429022
v -7.570597 -0.309440 -1.420439
v -7.570597 -1.500440 -1.420439
v -7.579180 -0.309440 -0.229470
v -7.579180 -1.500440 -0.229470
v -8.770149 -0.309440 -0.238053
v -8.770149 -1.500440 -0.238053
vn 0.0072 0.0000 -1.0000
vn 1.0000 0.0000 0.0072
vn -0.0072 -0.0000 1.0000
vn -1.0000 0.0000 -0.0072
vn 0.0000 -1.0000 -0.0000
vn -0.0000 1.0000 0.0000
usemtl None.012
s 1
f 25//19 26//19 27//19 28//19
f 28//20 27//20 29//20 30//20
f 30//21 29//21 31//21 32//21
f 32//22 31//22 26//22 25//22
f 28//23 30//23 32//23 25//23
f 29//24 27//24 26//24 31//24
o Cube.004_Cube.000_Cube.004_Cube.009
v -7.585148 -1.495726 -1.454478
v -7.585148 -0.304726 -1.454478
v -6.394180 -0.304726 -1.445895
v -6.394180 -1.495726 -1.445895
v -6.402763 -0.304726 -0.254926
v -6.402762 -1.495726 -0.254926
v -7.593731 -0.304726 -0.263509
v -7.593731 -1.495726 -0.263509
vn 0.0072 0.0000 -1.0000
vn 1.0000 0.0000 0.0072
vn -0.0072 -0.0000 1.0000
vn -1.0000 -0.0000 -0.0072
vn 0.0000 -1.0000 -0.0000
vn -0.0000 1.0000 0.0000
usemtl None.014
s 1
f 33//25 34//25 35//25 36//25
f 36//26 35//26 37//26 38//26
f 38//27 37//27 39//27 40//27
f 40//28 39//28 34//28 33//28
f 36//29 38//29 40//29 33//29
f 37//30 35//30 34//30 39//30
o Cube.005_Cube.000_Cube.005_Cube.009
v -6.399674 -1.495726 -1.445935
v -6.399674 -0.304726 -1.445935
v -5.208704 -0.304726 -1.437352
v -5.208704 -1.495726 -1.437352
v -5.217287 -0.304726 -0.246383
v -5.217287 -1.495726 -0.246383
v -6.408257 -0.304726 -0.254966
v -6.408257 -1.495726 -0.254966
vn 0.0072 0.0000 -1.0000
vn 1.0000 -0.0000 0.0072
vn -0.0072 -0.0000 1.0000
vn -1.0000 -0.0000 -0.0072
vn 0.0000 -1.0000 -0.0000
vn -0.0000 1.0000 0.0000
usemtl None.014
s 1
f 41//31 42//31 43//31 44//31
f 44//32 43//32 45//32 46//32
f 46//33 45//33 47//33 48//33
f 48//34 47//34 42//34 41//34
f 44//35 46//35 48//35 41//35
f 45//36 43//36 42//36 47//36
o Cube.007_Cube.004_Cube.007_Cube.016
v 2.889069 -1.500440 -1.429022
v 2.889069 -0.309440 -1.429022
v 4.080038 -0.309440 -1.420439
v 4.080038 -1.500440 -1.420439
v 4.071455 -0.309440 -0.229470
v 4.071455 -1.500440 -0.229470
v 2.880486 -0.309440 -0.238053
v 2.880486 -1.500440 -0.238053
vn 0.0072 0.0000 -1.0000
vn 1.0000 -0.0000 0.0072
vn -0.0072 -0.0000 1.0000
vn -1.0000 -0.0000 -0.0072
vn 0.0000 -1.0000 -0.0000
vn -0.0000 1.0000 0.0000
usemtl None.015
s 1
f 49//37 50//37 51//37 52//37
f 52//38 51//38 53//38 54//38
f 54//39 53//39 55//39 56//39
f 56//40 55//40 50//40 49//40
f 52//41 54//41 56//41 49//41
f 53//42 51//42 50//42 55//42
o Cube.007_Cube.003_Cube.007_Cube.015
v 1.713483 -1.500440 -1.429022
v 1.713483 -0.309440 -1.429022
v 2.904452 -0.309440 -1.420439
v 2.904452 -1.500440 -1.420439
v 2.895869 -0.309440 -0.229470
v 2.895869 -1.500440 -0.229470
v 1.704900 -0.309440 -0.238053
v 1.704900 -1.500440 -0.238053
vn 0.0072 0.0000 -1.0000
vn 1.0000 -0.0000 0.0072
vn -0.0072 -0.0000 1.0000
vn -1.0000 0.0000 -0.0072
vn 0.0000 -1.0000 -0.0000
vn -0.0000 1.0000 0.0000
usemtl None.016
s 1
f 57//43 58//43 59//43 60//43
f 60//44 59//44 61//44 62//44
f 62//45 61//45 63//45 64//45
f 64//46 63//46 58//46 57//46
f 60//47 62//47 64//47 57//47
f 61//48 59//48 58//48 63//48
o Cube.004_Cube.002_Cube.004_Cube.011
v 4.129976 -1.495726 -1.454478
v 4.129976 -0.304726 -1.454478
v 5.320945 -0.304726 -1.445895
v 5.320945 -1.495726 -1.445895
v 5.312362 -0.304726 -0.254926
v 5.312363 -1.495726 -0.254926
v 4.121393 -0.304726 -0.263509
v 4.121393 -1.495726 -0.263509
vn 0.0072 0.0000 -1.0000
vn 1.0000 0.0000 0.0072
vn -0.0072 -0.0000 1.0000
vn -1.0000 0.0000 -0.0072
vn 0.0000 -1.0000 -0.0000
vn -0.0000 1.0000 0.0000
usemtl None.018
s 1
f 65//49 66//49 67//49 68//49
f 68//50 67//50 69//50 70//50
f 70//51 69//51 71//51 72//51
f 72//52 71//52 66//52 65//52
f 68//53 70//53 72//53 65//53
f 69//54 67//54 66//54 71//54
o Cube.005_Cube.002_Cube.005_Cube.011
v 5.315451 -1.495726 -1.445935
v 5.315451 -0.304726 -1.445935
v 6.506420 -0.304726 -1.437352
v 6.506420 -1.495726 -1.437352
v 6.497838 -0.304726 -0.246383
v 6.497838 -1.495726 -0.246383
v 5.306868 -0.304726 -0.254966
v 5.306868 -1.495726 -0.254966
vn 0.0072 0.0000 -1.0000
vn 1.0000 0.0000 0.0072
vn -0.0072 -0.0000 1.0000
vn -1.0000 0.0000 -0.0072
vn 0.0000 -1.0000 -0.0000
vn -0.0000 1.0000 0.0000
usemtl None.018
s 1
f 73//55 74//55 75//55 76//55
f 76//56 75//56 77//56 78//56
f 78//57 77//57 79//57 80//57
f 80//58 79//58 74//58 73//58
f 76//59 78//59 80//59 73//59
f 77//60 75//60 74//60 79//60
o Cube.006_Cube.002_Cube.006_Cube.011
v 6.485096 -1.495726 -1.437505
v 6.485096 -0.304726 -1.437505
v 7.676064 -0.304726 -1.428923
v 7.676064 -1.495726 -1.428923
v 7.667481 -0.304726 -0.237954
v 7.667482 -1.495726 -0.237954
v 6.476513 -0.304726 -0.246536
v 6.476513 -1.495726 -0.246536
vn 0.0072 0.0000 -1.0000
vn 1.0000 0.0000 0.0072
vn -0.0072 -0.0000 1.0000
vn -1.0000 0.0000 -0.0072
vn 0.0000 -1.0000 -0.0000
vn -0.0000 1.0000 0.0000
usemtl None.018
s 1
f 81//61 82//61 83//61 84//61
f 84//62 83//62 85//62 86//62
f 86//63 85//63 87//63 88//63
f 88//64 87//64 82//64 81//64
f 84//65 86//65 88//65 81//65
f 85//66 83//66 82//66 87//66
o Cube.007_Cube.006_Cube.007_Cube.018
v 8.837833 -1.500440 -1.429022
v 8.837833 -0.309440 -1.429022
v 10.028803 -0.309440 -1.420439
v 10.028803 -1.500440 -1.420439
v 10.020220 -0.309440 -0.229470
v 10.020220 -1.500440 -0.229470
v 8.829250 -0.309440 -0.238053
v 8.829250 -1.500440 -0.238053
vn 0.0072 0.0000 -1.0000
vn 1.0000 -0.0000 0.0072
vn -0.0072 -0.0000 1.0000
vn -1.0000 -0.0000 -0.0072
vn 0.0000 -1.0000 -0.0000
vn -0.0000 1.0000 0.0000
usemtl None.017
s 1
f 89//67 90//67 91//67 92//67
f 92//68 91//68 93//68 94//68
f 94//69 93//69 95//69 96//69
f 96//70 95//70 90//70 89//70
f 92//71 94//71 96//71 89//71
f 93//72 91//72 90//72 95//72
o Cube.007_Cube.005_Cube.007_Cube.017
v 7.662247 -1.500440 -1.429022
v 7.662247 -0.309440 -1.429022
v 8.853216 -0.309440 -1.420439
v 8.853216 -1.500440 -1.420439
v 8.844633 -0.309440 -0.229470
v 8.844633 -1.500440 -0.229470
v 7.653664 -0.309440 -0.238053
v 7.653664 -1.500440 -0.238053
vn 0.0072 0.0000 -1.0000
vn 1.0000 -0.0000 0.0072
vn -0.0072 -0.0000 1.0000
vn -1.0000 -0.0000 -0.0072
vn 0.0000 -1.0000 -0.0000
vn -0.0000 1.0000 0.0000
usemtl None.018
s 1
f 97//73 98//73 99//73 100//73
f 100//74 99//74 101//74 102//74
f 102//75 101//75 103//75 104//75
f 104//76 103//76 98//76 97//76
f 100//77 102//77 104//77 97//77
f 101//78 99//78 98//78 103//78
o Cube.007_Cube.001_Cube.007_Cube.019
v -10.137441 -1.500440 -1.429022
v -10.137441 -0.309440 -1.429022
v -8.946471 -0.309440 -1.420439
v -8.946471 -1.500440 -1.420439
v -8.955054 -0.309440 -0.229470
v -8.955054 -1.500440 -0.229470
v -10.146024 -0.309440 -0.238053
v -10.146024 -1.500440 -0.238053
vn 0.0072 0.0000 -1.0000
vn 1.0000 0.0000 0.0072
vn -0.0072 -0.0000 1.0000
vn -1.0000 0.0000 -0.0072
vn 0.0000 -1.0000 -0.0000
vn -0.0000 1.0000 0.0000
usemtl None.019
s 1
f 105//79 106//79 107//79 108//79
f 108//80 107//80 109//80 110//80
f 110//81 109//81 111//81 112//81
f 112//82 111//82 106//82 105//82
f 108//83 110//83 112//83 105//83
f 109//84 107//84 106//84 111//84
