# Blender v2.78 (sub 0) OBJ File: ''
# www.blender.org
mtllib duelLine.mtl
o Cube_Cube.001
v -0.595500 -0.595500 0.595500
v -0.595500 0.595500 0.595500
v -0.595500 0.595500 -0.595500
v -0.595500 -0.595500 -0.595500
v 0.595500 0.595500 -0.595500
v 0.595500 -0.595500 -0.595500
v 0.595500 0.595500 0.595500
v 0.595500 -0.595500 0.595500
vn -1.0000 0.0000 0.0000
vn 0.0000 0.0000 -1.0000
vn 1.0000 0.0000 0.0000
vn 0.0000 0.0000 1.0000
vn 0.0000 -1.0000 0.0000
vn 0.0000 1.0000 0.0000
usemtl None
s 1
f 1//1 2//1 3//1 4//1
f 4//2 3//2 5//2 6//2
f 6//3 5//3 7//3 8//3
f 8//4 7//4 2//4 1//4
f 4//5 6//5 8//5 1//5
f 5//6 3//6 2//6 7//6
o Cube.014_Cube.000
v 1.806416 -1.763923 -1.725779
v 1.806416 -0.572923 -1.725779
v 1.806416 -0.572923 -2.916779
v 1.806416 -1.763923 -2.916779
v 2.997416 -0.572923 -2.916779
v 2.997416 -1.763923 -2.916779
v 2.997416 -0.572923 -1.725779
v 2.997416 -1.763923 -1.725779
vn -1.0000 0.0000 0.0000
vn 0.0000 0.0000 -1.0000
vn 1.0000 -0.0000 0.0000
vn 0.0000 -0.0000 1.0000
vn 0.0000 -1.0000 0.0000
vn 0.0000 1.0000 0.0000
usemtl None.003
s 1
f 9//7 10//7 11//7 12//7
f 12//8 11//8 13//8 14//8
f 14//9 13//9 15//9 16//9
f 16//10 15//10 10//10 9//10
f 12//11 14//11 16//11 9//11
f 13//12 11//12 10//12 15//12
o Cube.005_Cube.006
v -0.595500 -0.595500 -0.595656
v -0.595500 0.595500 -0.595656
v -0.595500 0.595500 -1.786656
v -0.595500 -0.595500 -1.786656
v 0.595500 0.595500 -1.786656
v 0.595500 -0.595500 -1.786656
v 0.595500 0.595500 -0.595656
v 0.595500 -0.595500 -0.595656
vn -1.0000 0.0000 0.0000
vn 0.0000 0.0000 -1.0000
vn 1.0000 0.0000 0.0000
vn 0.0000 0.0000 1.0000
vn 0.0000 -1.0000 -0.0000
vn 0.0000 1.0000 0.0000
usemtl None
s 1
f 17//13 18//13 19//13 20//13
f 20//14 19//14 21//14 22//14
f 22//15 21//15 23//15 24//15
f 24//16 23//16 18//16 17//16
f 20//17 22//17 24//17 17//17
f 21//18 19//18 18//18 23//18
o Cube.013_Cube.000
v 0.585358 -1.781784 -1.725779
v 0.585358 -0.590784 -1.725779
v 0.585358 -0.590784 -2.916779
v 0.585358 -1.781784 -2.916779
v 1.776358 -0.590784 -2.916779
v 1.776358 -1.781784 -2.916779
v 1.776358 -0.590784 -1.725779
v 1.776358 -1.781784 -1.725779
vn -1.0000 0.0000 0.0000
vn 0.0000 0.0000 -1.0000
vn 1.0000 -0.0000 0.0000
vn 0.0000 -0.0000 1.0000
vn 0.0000 -1.0000 0.0000
vn 0.0000 1.0000 0.0000
usemtl None.003
s 1
f 25//19 26//19 27//19 28//19
f 28//20 27//20 29//20 30//20
f 30//21 29//21 31//21 32//21
f 32//22 31//22 26//22 25//22
f 28//23 30//23 32//23 25//23
f 29//24 27//24 26//24 31//24
o Cube.011_Cube.000
v 0.607926 0.578000 -1.737658
v 0.607926 1.769000 -1.737658
v 0.607926 1.769000 -2.928658
v 0.607926 0.578000 -2.928658
v 1.798926 1.769000 -2.928658
v 1.798926 0.578000 -2.928658
v 1.798926 1.769000 -1.737658
v 1.798926 0.578000 -1.737658
vn -1.0000 0.0000 0.0000
vn 0.0000 0.0000 -1.0000
vn 1.0000 -0.0000 0.0000
vn 0.0000 -0.0000 1.0000
vn 0.0000 -1.0000 -0.0000
vn 0.0000 1.0000 0.0000
usemtl None.003
s 1
f 33//25 34//25 35//25 36//25
f 36//26 35//26 37//26 38//26
f 38//27 37//27 39//27 40//27
f 40//28 39//28 34//28 33//28
f 36//29 38//29 40//29 33//29
f 37//30 35//30 34//30 39//30
o Cube.012_Cube.000
v 0.590067 -0.572521 -1.725779
v 0.590067 0.618479 -1.725779
v 0.590067 0.618479 -2.916779
v 0.590067 -0.572521 -2.916779
v 1.781067 0.618479 -2.916779
v 1.781067 -0.572521 -2.916779
v 1.781067 0.618479 -1.725779
v 1.781067 -0.572521 -1.725779
vn -1.0000 0.0000 0.0000
vn 0.0000 0.0000 -1.0000
vn 1.0000 0.0000 0.0000
vn 0.0000 0.0000 1.0000
vn 0.0000 -1.0000 -0.0000
vn 0.0000 1.0000 0.0000
usemtl None.003
s 1
f 41//31 42//31 43//31 44//31
f 44//32 43//32 45//32 46//32
f 46//33 45//33 47//33 48//33
f 48//34 47//34 42//34 41//34
f 44//35 46//35 48//35 41//35
f 45//36 43//36 42//36 47//36
o Cube.006_Cube.007
v -0.595500 -0.595500 -1.737658
v -0.595500 0.595500 -1.737658
v -0.595500 0.595500 -2.928658
v -0.595500 -0.595500 -2.928658
v 0.595500 0.595500 -2.928658
v 0.595500 -0.595500 -2.928658
v 0.595500 0.595500 -1.737658
v 0.595500 -0.595500 -1.737658
vn -1.0000 0.0000 0.0000
vn 0.0000 0.0000 -1.0000
vn 1.0000 0.0000 0.0000
vn 0.0000 0.0000 1.0000
vn 0.0000 -1.0000 -0.0000
vn 0.0000 1.0000 0.0000
usemtl None
s 1
f 49//37 50//37 51//37 52//37
f 52//38 51//38 53//38 54//38
f 54//39 53//39 55//39 56//39
f 56//40 55//40 50//40 49//40
f 52//41 54//41 56//41 49//41
f 53//42 51//42 50//42 55//42
o Cube.009_Cube.010
v -0.595500 0.578000 -1.737658
v -0.595500 1.769000 -1.737658
v -0.595500 1.769000 -2.928658
v -0.595500 0.578000 -2.928658
v 0.595500 1.769000 -2.928658
v 0.595500 0.578000 -2.928658
v 0.595500 1.769000 -1.737658
v 0.595500 0.578000 -1.737658
vn -1.0000 0.0000 0.0000
vn 0.0000 0.0000 -1.0000
vn 1.0000 0.0000 0.0000
vn 0.0000 -0.0000 1.0000
vn 0.0000 -1.0000 -0.0000
vn 0.0000 1.0000 0.0000
usemtl None
s 1
f 57//43 58//43 59//43 60//43
f 60//44 59//44 61//44 62//44
f 62//45 61//45 63//45 64//45
f 64//46 63//46 58//46 57//46
f 60//47 62//47 64//47 57//47
f 61//48 59//48 58//48 63//48
